<?xml version="1.0" encoding="utf-8"?>
<!-- Generator: Adobe Illustrator 15.0.0, SVG Export Plug-In . SVG Version: 6.00 Build 0)  -->
<!DOCTYPE svg PUBLIC "-//W3C//DTD SVG 1.1//EN" "http://www.w3.org/Graphics/SVG/1.1/DTD/svg11.dtd">
<svg version="1.1" id="Capa_1" xmlns="http://www.w3.org/2000/svg" xmlns:xlink="http://www.w3.org/1999/xlink" x="0px" y="0px"
	 width="200px" height="200px" viewBox="0 0 200 200" enable-background="new 0 0 200 200" xml:space="preserve">
<g display="none">
	<path display="inline" fill-rule="evenodd" clip-rule="evenodd" fill="#FFFFFF" d="M93.319,67.641
		c0.612,0.014,0.775,0.477,1.044,0.835c0.414,1.725-1.647,1.162-1.879,1.67c-0.431-0.057-0.05-0.924-0.626-0.835
		c0.178-0.612,0.525,0.271,1.044,0C93.264,68.978,93.354,68.372,93.319,67.641z"/>
	<path display="inline" fill-rule="evenodd" clip-rule="evenodd" fill="#FFFFFF" d="M103.132,69.729
		c0.496,0.443,0.04,1.699-0.835,1.461C102.384,70.512,103.226,70.588,103.132,69.729z"/>
	<path display="inline" fill-rule="evenodd" clip-rule="evenodd" fill="#FFFFFF" d="M104.384,70.563
		c-0.071,0.555-0.548,0.705-1.044,0.835C103.207,70.639,103.772,70.579,104.384,70.563z"/>
	<path display="inline" fill-rule="evenodd" clip-rule="evenodd" fill="#FFFFFF" d="M104.802,71.399
		c0.063,0.55-0.436,0.538-0.835,0.626C103.98,71.463,104.443,71.021,104.802,71.399z"/>
	<path display="inline" fill-rule="evenodd" clip-rule="evenodd" fill="#FFFFFF" d="M125.052,74.53
		c0.298-0.484,1.133,0.243,1.462,0.417C126.176,75.472,125.509,74.577,125.052,74.53z"/>
	<path display="inline" fill-rule="evenodd" clip-rule="evenodd" fill="#FFFFFF" d="M76.409,74.739
		c0.437-0.089,0.553,0.143,0.835,0.208c-0.05,0.367-0.359,0.476-0.835,0.417C76.409,75.157,76.409,74.948,76.409,74.739z"/>
	<path display="inline" fill-rule="evenodd" clip-rule="evenodd" fill="#FFFFFF" d="M122.338,74.948
		c0.496,0.13,0.973,0.281,1.044,0.835c-0.817-0.03-0.834-0.711-1.67-0.208C121.829,75.273,122.037,75.064,122.338,74.948z"/>
	<path display="inline" fill-rule="evenodd" clip-rule="evenodd" fill="#FFFFFF" d="M118.163,75.365
		c0.041-0.293,1.365-0.133,1.252,0.417C118.759,75.883,118.6,75.485,118.163,75.365z"/>
	<path display="inline" fill-rule="evenodd" clip-rule="evenodd" fill="#FFFFFF" d="M124.844,77.871
		c0.437,0.068,0.636,1.203,0.626,0c0.789-0.179,0.739,0.935,0.418,1.252C125.534,78.711,124.683,78.797,124.844,77.871z"/>
	<path display="inline" fill-rule="evenodd" clip-rule="evenodd" fill="#FFFFFF" d="M128.602,78.079
		c0.371-0.357,1.416,0.383,1.461,1.044c-0.397-0.391-0.524-0.023-1.044,0C129.454,78.708,129.025,78.231,128.602,78.079z"/>
	<path display="inline" fill-rule="evenodd" clip-rule="evenodd" fill="#FFFFFF" d="M122.338,78.079
		c0.395,0.093,1.259-0.284,1.044,0.418c-0.242,0.034-0.371-0.046-0.417-0.209c-0.413,0.145-0.557,0.557-0.627,1.044
		C121.75,79.121,122.396,78.445,122.338,78.079z"/>
	<path display="inline" fill-rule="evenodd" clip-rule="evenodd" fill="#FFFFFF" d="M120.877,78.706
		c0.007,0.759,0.613,0.917,1.461,0.835c0,0.278,0,0.557,0,0.835c-0.161-0.344-1.255-0.585-0.626,0
		c0.038,0.177-0.081,0.197-0.209,0.208c-0.209,0-0.417,0-0.626,0c0.813-0.606,0.059-1.399-0.835-1.461
		C120.179,78.843,120.488,78.734,120.877,78.706z"/>
	<path display="inline" fill-rule="evenodd" clip-rule="evenodd" fill="#FFFFFF" d="M125.47,79.332
		c0.453-0.035,0.095,0.74,0.209,1.044c-0.168-0.111-0.339-0.218-0.627-0.209C124.9,79.598,125.467,79.747,125.47,79.332z"/>
	<path display="inline" fill-rule="evenodd" clip-rule="evenodd" fill="#FFFFFF" d="M122.13,112.108
		c-1.884,1.061-3.626,0.973-5.846,1.67C117.641,112.61,119.822,112.663,122.13,112.108z"/>
	<path display="inline" fill-rule="evenodd" clip-rule="evenodd" fill="#FFFFFF" d="M104.593,115.031c0.209,0,0.418,0,0.626,0
		c-0.323,0.668-0.073,0.919,0.836,0.835c-0.173,0.59,0.294,0.541,0.208,1.044C105.774,116.198,104.018,116.177,104.593,115.031z"/>
	<path display="inline" fill-rule="evenodd" clip-rule="evenodd" fill="#FFFFFF" d="M130.48,117.536
		c-0.137,0.56-0.599,0.794-0.835,1.253C129.069,118.334,130.089,117.716,130.48,117.536z"/>
	<path display="inline" fill-rule="evenodd" clip-rule="evenodd" fill="#FFFFFF" d="M125.261,119.833
		c0.095-0.41,1.465-0.375,1.044,0.418C125.662,120.406,125.903,119.678,125.261,119.833z"/>
	<path display="inline" fill-rule="evenodd" clip-rule="evenodd" fill="#FFFFFF" d="M121.503,119.833
		c0.569-0.152,0.421,0.415,0.835,0.418c-0.064,0.827-0.725-0.234-0.626,0.626c-0.186-0.129-0.373-0.252-0.418,0
		C120.728,120.687,121.507,120.146,121.503,119.833z"/>
	<path display="inline" fill-rule="evenodd" clip-rule="evenodd" fill="#FFFFFF" d="M128.184,120.042
		c0.179,0.666-0.328,0.646-0.417,1.044c-0.263-0.052-0.211-0.415,0-0.418c0.082-0.5-0.951,0.116-0.627-0.626
		C127.537,119.65,127.664,120.019,128.184,120.042z"/>
	<path display="inline" fill-rule="evenodd" clip-rule="evenodd" fill="#FFFFFF" d="M173.904,120.877
		c0.537,0.297,1.181,0.489,1.252,1.253C174.288,122.162,173.871,121.745,173.904,120.877z"/>
	<path display="inline" fill-rule="evenodd" clip-rule="evenodd" d="M175.783,120.668c-1.162,0.371,0.659,1.558-0.418,1.879
		c0.188,0.57,0.467-0.635,0.835,0c1.628,2.345,2.508,5.117,3.758,7.725c2.621,5.464,5.069,10.94,8.351,15.657
		c1.903,1.716,2.895,4.344,4.385,6.472c-3.923-2.828-7.302-8.008-11.273-11.481c-2.409-2.95-4.255-6.463-7.516-8.56
		c-1.955-3.613-3.962-7.174-6.473-10.229c-0.638-0.152-0.613,0.359-1.252,0.208c-2.386-1.885-5.41-5.462-9.186-7.516
		c-0.959-0.521-2.235-0.504-3.132-1.044c-0.425-0.256-0.573-0.844-1.044-1.044c-1.245-0.528-3.32-0.818-5.011-1.252
		c-1.635-0.42-3.701-1.172-5.01-1.044c-1.995,0.195-4.309,2.038-6.055,3.34c-1.478,1.102-2.271,2.456-4.176,3.341
		c1.128,2.213,1.984,4.697,1.879,8.142c-1.646-1.105-1.938-4.861-1.879-5.846c-3.481,0.053-4.922,2.706-4.801,7.516
		c-2.859-0.757-0.101-6.202-2.715-6.889c-3.023,0.188-3.054,4.447-5.428,4.593c0.387-4.563,3.218-6.91,6.264-7.725
		c-0.184-0.37-0.839,0.537-1.462,0.418c0.984-0.831,3.577-2.427,4.802-1.044c0.31-0.092-0.082-0.268,0-0.627
		c3.378-0.17,4.514-2.584,6.055-4.593c-2.054-0.984-7.2-5.386-8.143-0.626c-1.253,0.904-2.19,2.124-3.549,2.923
		c-3.183,0.767-8.594,1.156-11.899,2.714c-0.435,0.204-0.809,0.904-1.462,1.253c-1.75,0.933-4.067,0.546-5.011,1.461
		c-1.048,1.017-0.396,3.047-2.087,3.341c-0.041-2.06,0.736-3.3,0.835-5.22c-2.481-1.587-3.245,2.001-4.384,3.132
		c-0.917-0.83,0.562-2.74,0.835-3.758c0.525,0.534,1.568,0.36,1.67-0.627c-0.442-0.693-0.606,0.627-1.253,0.418
		c0.444-0.469,0.149-1.376-0.417-1.461c-1.949,0.54-3.098,2.333-3.758,3.549c-0.752-2.09,2.606-3.456,3.758-5.011
		c0.839-0.144,1.192,0.2,1.879,0.209c1,0.039-0.359,0.363,0,1.044c1.127,0.292,1.106-0.564,1.879-0.627
		c1.226,1.287,2.878,0.057,4.175,0c0.977-0.042,1.853,0.662,3.132,0.209c3.125-1.106,6.791-1.969,9.604-3.549
		c0.761-9.739-10.749-10.265-16.075-15.24c-0.633-0.59-0.88-1.577-1.462-2.087c-0.637-0.56-1.556-0.591-2.088-1.044
		c-1.884-1.604-2.635-3.573-3.549-5.428c-0.881-1.791-2.592-3.333-2.922-5.845c-1.303-1.759-3.726-2.398-5.219-3.967
		c-5.187-0.932-10.826-0.099-15.24,0.209c0.266-0.212,1.563-0.476,2.296-0.835c-0.554-0.313-1.478,0.197-2.087-0.417
		c0.43-1.588,1.995-2.041,2.922-3.131c0.195,0.153,0.316,0.379,0.417,0.626c1.14-1.436,2.66,0.003,3.34-1.67
		c-0.642,0.25-1.101,0.113-1.879,0.417c1.935-1.577,4.497-1.883,6.89-2.922c1.387-0.603,2.771-2.006,4.384-2.714
		c1.531-0.672,3.453-0.482,4.802-1.67c4.512-0.822,10.101,1.851,15.449,3.131c1.692,0.405,3.504,0.292,5.011,0.626
		c1.471,0.326,2.792,1.216,4.176,1.67c6.836,2.243,14.1,3.629,18.997,7.725c5.009,5.708,12.936,8.498,17.954,14.196
		c0.978,3.45,4.315,5.552,6.681,8.142c1.722,1.886,3.076,4.055,4.802,5.846c5.322,5.143,11.515,9.693,17.954,13.987
		c2.067,1.378,4.503,2.437,5.846,4.384c-3.369-0.945-6.245-2.384-9.186-3.758c4.59,4.944,10.716,10.16,16.283,14.822
		C191.009,132.025,183.688,125.497,175.783,120.668z M121.294,120.877c0.045-0.252,0.232-0.129,0.418,0
		c-0.099-0.86,0.562,0.201,0.626-0.626c-0.414-0.003-0.266-0.57-0.835-0.418C121.507,120.146,120.728,120.687,121.294,120.877z
		 M92.902,69.311c-0.519,0.271-0.866-0.612-1.044,0c0.577-0.089,0.196,0.778,0.626,0.835c0.231-0.508,2.292,0.055,1.879-1.67
		c-0.269-0.358-0.432-0.821-1.044-0.835C93.354,68.372,93.264,68.978,92.902,69.311z M87.056,72.025
		c-0.987-0.695-2.68-0.023-3.966,0.417c1.719,0.067,3.062,0.085,4.802-0.208c-0.109,0.309-0.309,0.526-0.417,0.835
		c1.424-0.512,2.284-1.268,3.34-1.67c-0.428-0.338-0.526-1.005-0.835-1.461c-0.722,0.165-0.881-0.232-1.252-0.417
		c-1.098,0.937-2.995-0.682-3.758,1.043c-0.035-0.243-0.33-0.227-0.626-0.208c0.726,0.809-1.14,0.786-0.417,1.461
		c0.848-0.859,2.17-1.003,3.34-1.044c-0.179,0.968,0.329,0.219,0.417,0.626C87.288,71.422,87.538,72.089,87.056,72.025z
		 M102.297,71.19c0.875,0.237,1.331-1.018,0.835-1.461C103.226,70.588,102.384,70.512,102.297,71.19z M103.34,71.399
		c0.496-0.131,0.973-0.281,1.044-0.835C103.772,70.579,103.207,70.639,103.34,71.399z M103.967,72.025
		c0.399-0.088,0.898-0.076,0.835-0.626C104.443,71.021,103.98,71.463,103.967,72.025z M123.382,74.321
		c-0.523-0.158-2.01-0.424-1.252,0.418C122.169,73.973,123.758,74.899,123.382,74.321z M126.514,74.948
		c-0.329-0.175-1.164-0.901-1.462-0.417C125.509,74.577,126.176,75.472,126.514,74.948z M76.409,75.365
		c0.476,0.059,0.785-0.05,0.835-0.417c-0.282-0.065-0.398-0.297-0.835-0.208C76.409,74.948,76.409,75.157,76.409,75.365z
		 M121.712,75.574c0.836-0.503,0.853,0.178,1.67,0.208c-0.071-0.554-0.548-0.705-1.044-0.835
		C122.037,75.064,121.829,75.273,121.712,75.574z M119.415,75.783c0.113-0.55-1.211-0.71-1.252-0.417
		C118.6,75.485,118.759,75.883,119.415,75.783z M125.888,79.123c0.321-0.318,0.371-1.431-0.418-1.252
		c0.01,1.203-0.189,0.068-0.626,0C124.683,78.797,125.534,78.711,125.888,79.123z M129.019,79.123c0.52-0.023,0.646-0.391,1.044,0
		c-0.045-0.661-1.09-1.401-1.461-1.044C129.025,78.231,129.454,78.708,129.019,79.123z M122.338,79.332
		c0.07-0.487,0.214-0.899,0.627-1.044c0.046,0.163,0.175,0.243,0.417,0.209c0.215-0.702-0.649-0.325-1.044-0.418
		C122.396,78.445,121.75,79.121,122.338,79.332z M133.82,78.288c-0.118,1.075,1.106,1.396,0.209,2.088
		c1.34,0.07,0.231-1.387,0.209-1.879c0.324,0.017,0.145-0.607,0-0.209C134.193,78.541,134.006,78.417,133.82,78.288z M128.81,79.332
		c0.043-0.58-1.535-1.36-1.252-0.835C128.277,78.473,128.09,79.356,128.81,79.332z M120.042,79.123
		c0.894,0.063,1.648,0.855,0.835,1.461c0.209,0,0.417,0,0.626,0c0.128-0.012,0.247-0.031,0.209-0.208
		c-0.629-0.585,0.465-0.344,0.626,0c0-0.278,0-0.557,0-0.835c-0.848,0.082-1.454-0.076-1.461-0.835
		C120.488,78.734,120.179,78.843,120.042,79.123z M125.052,80.167c0.288-0.009,0.459,0.098,0.627,0.209
		c-0.114-0.304,0.244-1.079-0.209-1.044C125.467,79.747,124.9,79.598,125.052,80.167z M127.975,79.958
		c-0.623,0.299-0.71-0.17-1.252,0.209c0.184-0.431-0.688-0.791-0.627-0.417C126.188,80.194,127.828,80.913,127.975,79.958z
		 M135.908,83.716c0.002-0.276,0.366-0.191,0.417-0.418c-0.418,0.047-0.845-0.931-1.252-0.208c0.847,0.336-1.353,0.411-0.418,0.835
		c0.293-0.333,0.72-0.533,1.253-0.626C135.93,83.533,135.604,83.624,135.908,83.716z M133.403,86.013
		c-0.023-0.534-0.383-0.731-0.627-1.044c-0.354,0.726-0.012,1.566,0.835,1.67c-0.223-0.78,0.519-0.595,0.418-1.252
		C133.287,85.062,133.903,86.095,133.403,86.013z M139.248,86.013c0.729-0.187,0.357,0.681,0.209,0.835
		c1.288-0.27-0.328-1.147,0.835-1.67c-0.279-0.022-1.15-0.391-0.626,0C140.4,85.535,139.143,85.598,139.248,86.013z M136.325,87.683
		c0.975-0.12,0.057-1.451-0.208-1.67C136.07,86.907,136.812,86.864,136.325,87.683z M134.864,113.987
		c1.069-0.673,2.848-1.742,2.923-2.714C136.908,112.273,135.474,112.718,134.864,113.987z M116.284,113.778
		c2.22-0.697,3.962-0.609,5.846-1.67C119.822,112.663,117.641,112.61,116.284,113.778z M113.57,114.822
		c0.532-0.65,2.113-0.252,2.505-1.044C115.128,113.118,113.428,114.412,113.57,114.822z M106.263,116.91
		c0.086-0.503-0.381-0.454-0.208-1.044c-0.909,0.084-1.159-0.167-0.836-0.835c-0.208,0-0.417,0-0.626,0
		C104.018,116.177,105.774,116.198,106.263,116.91z M129.646,118.789c0.236-0.459,0.698-0.693,0.835-1.253
		C130.089,117.716,129.069,118.334,129.646,118.789z M126.305,120.251c0.421-0.793-0.949-0.828-1.044-0.418
		C125.903,119.678,125.662,120.406,126.305,120.251z M127.14,120.042c-0.324,0.742,0.709,0.126,0.627,0.626
		c-0.211,0.003-0.263,0.366,0,0.418c0.089-0.398,0.596-0.378,0.417-1.044C127.664,120.019,127.537,119.65,127.14,120.042z
		 M175.156,122.13c-0.071-0.764-0.715-0.956-1.252-1.253C173.871,121.745,174.288,122.162,175.156,122.13z"/>
	<path display="inline" fill-rule="evenodd" clip-rule="evenodd" fill="#FFFFFF" d="M122.13,74.739
		c-0.758-0.842,0.729-0.576,1.252-0.418C123.758,74.899,122.169,73.973,122.13,74.739z"/>
	<path display="inline" fill-rule="evenodd" clip-rule="evenodd" fill="#FFFFFF" d="M134.238,78.288
		c0.145-0.398,0.324,0.226,0,0.209c0.022,0.492,1.131,1.949-0.209,1.879c0.897-0.691-0.327-1.013-0.209-2.088
		C134.006,78.417,134.193,78.541,134.238,78.288z"/>
	<path display="inline" fill-rule="evenodd" clip-rule="evenodd" fill="#FFFFFF" d="M127.558,78.497
		c-0.283-0.525,1.295,0.255,1.252,0.835C128.09,79.356,128.277,78.473,127.558,78.497z"/>
	<path display="inline" fill-rule="evenodd" clip-rule="evenodd" fill="#FFFFFF" d="M126.096,79.75
		c-0.062-0.373,0.811-0.013,0.627,0.417c0.542-0.379,0.629,0.09,1.252-0.209C127.828,80.913,126.188,80.194,126.096,79.75z"/>
	<path display="inline" fill-rule="evenodd" clip-rule="evenodd" fill="#FFFFFF" d="M135.908,83.298
		c-0.533,0.093-0.96,0.293-1.253,0.626c-0.935-0.424,1.265-0.499,0.418-0.835c0.407-0.723,0.834,0.255,1.252,0.208
		c-0.051,0.227-0.415,0.142-0.417,0.418C135.604,83.624,135.93,83.533,135.908,83.298z"/>
	<path display="inline" fill-rule="evenodd" clip-rule="evenodd" fill="#FFFFFF" d="M134.029,85.386
		c0.101,0.658-0.641,0.473-0.418,1.252c-0.847-0.104-1.189-0.944-0.835-1.67c0.244,0.313,0.604,0.51,0.627,1.044
		C133.903,86.095,133.287,85.062,134.029,85.386z"/>
	<path display="inline" fill-rule="evenodd" clip-rule="evenodd" fill="#FFFFFF" d="M139.666,85.177
		c-0.524-0.391,0.347-0.022,0.626,0c-1.163,0.523,0.453,1.401-0.835,1.67c0.148-0.154,0.521-1.022-0.209-0.835
		C139.143,85.598,140.4,85.535,139.666,85.177z"/>
	<path display="inline" fill-rule="evenodd" clip-rule="evenodd" fill="#FFFFFF" d="M136.117,86.013
		c0.265,0.219,1.183,1.55,0.208,1.67C136.812,86.864,136.07,86.907,136.117,86.013z"/>
	<path display="inline" fill-rule="evenodd" clip-rule="evenodd" fill="#FFFFFF" d="M137.787,111.273
		c-0.075,0.972-1.854,2.041-2.923,2.714C135.474,112.718,136.908,112.273,137.787,111.273z"/>
	<path display="inline" fill-rule="evenodd" clip-rule="evenodd" fill="#FFFFFF" d="M116.075,113.778
		c-0.392,0.792-1.973,0.394-2.505,1.044C113.428,114.412,115.128,113.118,116.075,113.778z"/>
	<path display="inline" fill-rule="evenodd" clip-rule="evenodd" fill="#FFFFFF" d="M87.683,71.399
		c-0.089-0.408-0.597,0.341-0.417-0.626c-1.17,0.041-2.493,0.185-3.34,1.044c-0.722-0.676,1.144-0.653,0.417-1.461
		c0.296-0.018,0.591-0.035,0.626,0.208c0.763-1.725,2.66-0.107,3.758-1.043c0.371,0.185,0.531,0.583,1.252,0.417
		c0.309,0.457,0.407,1.124,0.835,1.461c-1.056,0.402-1.916,1.158-3.34,1.67c0.108-0.309,0.309-0.526,0.417-0.835
		c-1.74,0.293-3.083,0.276-4.802,0.208c1.286-0.441,2.979-1.112,3.966-0.417C87.538,72.089,87.288,71.422,87.683,71.399z"/>
</g>
<g display="none">
	<path display="inline" fill-rule="evenodd" clip-rule="evenodd" fill="#FFFFFF" d="M122.313,81.465c1.156,0.5,1.164,0.095,2.4,0
		c-0.179,0.694-0.139,1.606-0.437,2.182c-0.581-0.218-0.72-0.881-1.091-1.309c-0.213,0.006-0.17,0.267-0.219,0.437
		c-0.322-0.114-0.55-0.323-0.873-0.437C122.002,81.882,122.244,81.76,122.313,81.465z"/>
	<path display="inline" fill-rule="evenodd" clip-rule="evenodd" fill="#FFFFFF" d="M125.586,82.12
		c0.212,0.006,0.169,0.267,0.218,0.437c0.194-0.097,0.391-0.192,0.437-0.437c0.669,0.213-0.097,0.735-0.218,0.873
		C125.639,82.94,125.525,82.617,125.586,82.12z"/>
	<path display="inline" fill-rule="evenodd" clip-rule="evenodd" d="M94.378,84.52c-0.253,0.183-0.585,0.288-1.091,0.218
		c0.129-0.696-0.41-0.675,0-1.091C93.819,83.771,94.41,83.834,94.378,84.52z"/>
	<path display="inline" fill-rule="evenodd" clip-rule="evenodd" fill="#FFFFFF" d="M136.716,83.865
		c0.194,0.169,0.493,0.235,0.873,0.218c-0.283,0.29-0.288,0.812,0.218,0.873C137.223,85.667,136.47,84.708,136.716,83.865z"/>
	<path display="inline" fill-rule="evenodd" clip-rule="evenodd" fill="#FFFFFF" d="M99.18,84.52
		c-0.041,0.614-0.38,0.93-1.091,0.873C98.164,84.813,98.661,84.656,99.18,84.52z"/>
	<path display="inline" fill-rule="evenodd" clip-rule="evenodd" fill="#FFFFFF" d="M128.859,84.52
		c1.159-0.243,0.89,0.942,0.654,1.528C128.985,85.849,128.937,85.171,128.859,84.52z"/>
	<path display="inline" fill-rule="evenodd" clip-rule="evenodd" fill="#FFFFFF" d="M128.859,85.175
		c-0.461,0.194-0.379,0.93-1.091,0.873c0.035-0.254-0.049-0.388-0.219-0.437c0.895-0.211,0.104-0.753,1.092-0.873
		C128.605,84.992,128.689,85.126,128.859,85.175z"/>
	<path display="inline" fill-rule="evenodd" clip-rule="evenodd" fill="#FFFFFF" d="M140.645,86.921
		c0.352-0.062,0.375,0.206,0.654,0.218c-0.19,0.319-0.174,0.845-0.873,0.655C140.333,87.337,140.575,87.216,140.645,86.921z"/>
	<path display="inline" fill-rule="evenodd" clip-rule="evenodd" fill="#FFFFFF" d="M134.315,89.758
		c0.056-0.511,0.959-0.126,1.091,0C135.234,90.523,134.644,90.01,134.315,89.758z"/>
	<path display="inline" fill-rule="evenodd" clip-rule="evenodd" fill="#FFFFFF" d="M130.169,92.595c0.218,0,0.437,0,0.654,0
		c-0.026,0.555-0.317,0.846-0.873,0.873C130.12,93.273,130.186,92.975,130.169,92.595z"/>
	<path display="inline" fill-rule="evenodd" clip-rule="evenodd" fill="#FFFFFF" d="M93.069,93.031
		c0.296,0.067,0.181,0.546,0.218,0.873c-0.434-0.527-1.039,0.363-1.527-0.218C91.657,92.929,92.944,93.561,93.069,93.031z"/>
	<path display="inline" fill-rule="evenodd" clip-rule="evenodd" fill="#FFFFFF" d="M91.323,96.741
		c0.977-0.104,1.092,0.654,1.091,1.528C91.249,98.562,91.511,97.426,91.323,96.741z"/>
	<path display="inline" fill-rule="evenodd" clip-rule="evenodd" fill="#FFFFFF" d="M126.022,99.36
		c0.556,0.027,0.847,0.318,0.873,0.873C126.164,100.383,126.098,99.867,126.022,99.36z"/>
	<path display="inline" fill-rule="evenodd" clip-rule="evenodd" fill="#FFFFFF" d="M141.08,101.324
		c0.194,0.134,0.391,0.264,0.437,0c0.607,0.514,1.061,2.763,0,3.056C142.17,103.335,141.104,102.393,141.08,101.324z"/>
	<path display="inline" fill-rule="evenodd" clip-rule="evenodd" fill="#FFFFFF" d="M142.172,106.125
		c0.874,0.622,0.614,1.981,0.437,2.837C141.654,108.354,142.554,107.053,142.172,106.125z"/>
	<path display="inline" fill-rule="evenodd" clip-rule="evenodd" fill="#FFFFFF" d="M160.285,108.962
		c0.349,0.307,0.558,0.752,0.654,1.31C160.224,110.306,159.893,109.381,160.285,108.962z"/>
	<path display="inline" fill-rule="evenodd" clip-rule="evenodd" fill="#FFFFFF" d="M121.003,114.2
		c0.5,1.202,0.047,2.629-1.091,3.273C120.175,116.281,120.613,115.266,121.003,114.2z"/>
	<path display="inline" fill-rule="evenodd" clip-rule="evenodd" fill="#FFFFFF" d="M126.677,119.001
		c-0.188-0.176-0.129-0.598-0.437-0.654c0.163-0.492,1.225-0.086,1.746-0.219C127.979,118.848,127.366,118.963,126.677,119.001z"/>
	<path display="inline" fill-rule="evenodd" clip-rule="evenodd" fill="#FFFFFF" d="M118.82,121.184
		c0.413,0.713-0.764,1.703-1.527,1.964C117.615,122.306,118.288,121.814,118.82,121.184z"/>
	<path display="inline" fill-rule="evenodd" clip-rule="evenodd" fill="#FFFFFF" d="M170.979,122.274
		c0.589,0.284,0.136,1.611,0.873,1.746C171.126,124.79,170.645,122.597,170.979,122.274z"/>
	<path display="inline" fill-rule="evenodd" clip-rule="evenodd" fill="#FFFFFF" d="M118.384,126.203
		c-0.075,0.579-0.572,0.736-1.091,0.873c0.08-0.371-0.17-0.412-0.437-0.437C116.887,126.016,117.767,126.24,118.384,126.203z"/>
	<path display="inline" fill-rule="evenodd" clip-rule="evenodd" fill="#FFFFFF" d="M118.82,126.203
		c1.344,0.185,2.124,0.932,3.929,0.654c-0.143,0.73-1.366,0.38-1.746,0.873c-0.682-0.119-0.688-0.911-1.527-0.873
		c-0.417,0.456-0.704,1.042-0.873,1.746c-0.513-0.069-0.819-0.345-1.527-0.218C117.868,127.869,118.951,127.643,118.82,126.203z"/>
	<path display="inline" fill-rule="evenodd" clip-rule="evenodd" d="M94.16,102.634c-1.268-0.114-1.177-1.587-2.4-1.746
		c-2.078-4.319,0.191-11.222-3.71-14.185c-0.852-4.084,2.022-7.671,4.801-9.821c4.313-3.336,13.021-6.977,19.205-7.202
		c2.289-0.083,4.447,0.726,6.547,0.873c2.566,0.179,5.173-0.136,7.42,0.218c6.544,1.03,9.919,6.432,15.494,7.638
		c0.099,0.82,1.206,0.611,0.655,1.091c5.228,1.739,8.126,6.298,11.784,10.694c2.975,3.573,4.801,4.83,8.512,7.42
		c1.546,1.079,3.234,1.824,4.801,2.837c2.887,1.866,5.294,4.603,8.075,6.766c2.727,2.121,5.924,4.075,7.42,7.201
		c-4.966-3.545-9.522-7.5-15.713-9.82c2.717,4.267,7.789,8.069,11.13,12.439c-4.948-3.345-9.721-6.865-15.495-9.384
		c5.2,6.729,11.389,12.472,17.896,17.895c2.774,3.628,7.739,5.064,9.82,9.385c-2.557-0.572-4.541-2.425-6.983-3.71
		c-3.101-1.633-4.715-3.901-7.856-5.456c-0.57,0.962,0.946,1.454,1.527,1.964c2.835,3.786,6.431,6.81,9.603,10.257
		c0.416,1.694,1.48,2.739,2.4,3.929c-2.592-0.737-4.296-3.535-6.765-5.238c-1.586-1.093-3.502-1.692-4.583-3.273
		c-3.241-1.56-5.463-4.14-9.166-5.237c-0.069-0.513-0.676-0.488-0.873-0.873c-0.977-0.042-1.799-0.237-2.183-0.873
		c-0.616-0.18-0.565,0.308-1.091,0.219c-9.098-6.034-16.014-14.249-27.716-17.678c-0.099-0.629-0.772-0.683-0.654-1.527
		c-0.331,0.542-0.422,1.325-0.437,2.183c-2.657,2.619-6.795,6.72-8.729,10.257c-0.328,0.6-0.87,2.046-0.873,2.619
		c-0.02,4.233,5.011,3.449,5.456,7.638c-1.021-1.021,0.842,3.068-0.873,3.273c0.045-1.11-0.234-2.494-0.873-3.491
		c-0.437,0-0.873,0-1.31,0c0.027,0.481,0.926,0.093,1.31,0.218c-3.082,0.427-5.45-0.611-8.947-0.654
		c0.024-0.558,0.73-0.434,1.309-0.437c-3.637,0.06-2.868,6.297-2.618,9.384c-0.636-2.592-1.873-6.321-0.873-9.166
		c-1.557,0.235-3.169-1.088-4.146,0c0.047,1.094,0.99,3.409,0.437,5.02c-0.771-0.902-0.472-2.874-1.092-3.928
		c0.508-1.676,2.077-2.288,2.838-3.71c-0.948,0.23-2.577-0.286-2.838,1.091c-0.412-0.024-0.151-0.722-0.654-0.654
		c-0.272,0.454-0.534,0.92-0.873,1.31c0.639,0.057,0.671-0.494,1.31-0.437c0.013,0.715,0.621,0.834,0.437,1.745
		c-0.491-0.091,0.032-1.196-0.654-1.091c-2.398,0.003-1.489,3.313-2.838,4.364c-0.146-0.404,0.438-3.752,1.528-4.364
		c-0.055-0.274-0.435-0.22-0.437,0c0.007-2.898,5.773-2.738,8.947-2.837c-0.751-0.122-0.67-1.076-0.873-1.746
		c-2.168-0.344-3.598-0.147-5.237-1.091c0.094-0.416,0.47-0.549,0.437-1.092c-0.391-0.062-0.448,0.207-0.219,0.219
		c-0.53,0.393-2.362-1.667-3.273-0.219c0.411,0.709,0.997-0.024,1.746,0.437c-0.144,0.654-0.467-0.208-0.873,0
		c0.944,0.73,1.433-0.052,1.964,1.31c-1.063,0.19-1.447-0.298-2.182-0.437c-1.692,0.375,0.191,2.972-1.746,3.056
		c-0.418-0.527-0.138-1.754-0.219-2.619c-0.473-0.037-0.099,0.774-0.218,1.091c-0.825-1.053,0.617-1.703,0.218-3.055
		c0.392-0.028,0.461,0.267,0.873,0.218c0.18-0.834-1.052-0.257-0.873-1.091c0.364,0,0.728,0,1.092,0
		c-0.824-0.396-2.082-0.424-2.619-0.218c-0.721-0.328,0.454-0.534,0.219-1.092c3.05-0.099,7.78,2.563,9.82-0.437
		c0.379-0.137-0.533,1.438-0.437,1.964c0.51,0.354,1.173-1.001,1.31-1.745c0.286,0.077,0.343,0.384,0.654,0.437
		c-0.074-0.438,0.045-0.684,0.437-0.655c-0.357-0.442-0.471-1.129-1.091-1.31c0.443-1.375,0.905-2.731,1.527-3.928
		c-0.387-1.359-2.021-2.285-0.873-3.929c-0.991-6.138-5.994-8.263-8.293-13.094c-1.959-0.48-3.388-0.667-5.02-1.746
		c-1.687-1.115-3.757-4.316-5.674-4.146c-1.441,0.127-4.138,4.429-5.02,6.983c-0.441,1.28-0.928,2.541-1.527,3.928
		C95.424,100.746,94.687,102.488,94.16,102.634z M127.986,118.128c-0.521,0.133-1.583-0.273-1.746,0.219
		c0.308,0.057,0.249,0.479,0.437,0.654C127.366,118.963,127.979,118.848,127.986,118.128z M119.912,117.474
		c1.138-0.645,1.591-2.071,1.091-3.273C120.613,115.266,120.175,116.281,119.912,117.474z M136.062,82.993
		c-0.185-0.907-0.591-1.592-0.873-2.401c-0.03,0.407-0.144,0.729-0.437,0.873c-0.774-0.754-0.846-2.21-1.964-2.619
		c0.089,0.71,0.455,1.145,0.872,1.527c-0.288,0.002-0.199,0.383-0.436,0.437c-0.4,0.011-0.739-1.118-1.092-0.437
		C134.02,80.821,133.484,82.937,136.062,82.993z M135.625,80.374c0.906-0.17-0.76-1.179-1.092-1.527
		C134.47,79.782,135.562,79.563,135.625,80.374z M122.094,82.338c0.323,0.113,0.551,0.323,0.873,0.437
		c0.049-0.169,0.006-0.431,0.219-0.437c0.371,0.428,0.51,1.091,1.091,1.309c0.298-0.576,0.258-1.488,0.437-2.182
		c-1.236,0.095-1.244,0.5-2.4,0C122.244,81.76,122.002,81.882,122.094,82.338z M126.022,82.993c0.121-0.138,0.887-0.66,0.218-0.873
		c-0.046,0.245-0.242,0.34-0.437,0.437c-0.049-0.169-0.006-0.431-0.218-0.437C125.525,82.617,125.639,82.94,126.022,82.993z
		 M97.434,83.647c-0.133-0.012-0.258-0.032-0.218-0.218c0.22-0.002,0.274-0.382,0-0.436c-0.046,0.264-0.242,0.134-0.437,0
		c-0.063,0.134-0.543,0.84,0,0.873c0.048-0.17,0.183-0.253,0.437-0.218C97.215,83.769,97.392,83.895,97.434,83.647z M92.851,83.647
		c-0.085,0.886,0.08,1.521,0.873,1.528c0.279-0.012,0.302-0.28,0.655-0.218C95.203,83.655,93.621,82.789,92.851,83.647z
		 M137.807,84.957c-0.506-0.061-0.501-0.583-0.218-0.873c-0.38,0.017-0.679-0.049-0.873-0.218
		C136.47,84.708,137.223,85.667,137.807,84.957z M98.088,85.393c0.711,0.057,1.05-0.259,1.091-0.873
		C98.661,84.656,98.164,84.813,98.088,85.393z M128.642,84.738c-0.987,0.12-0.197,0.662-1.092,0.873
		c0.17,0.048,0.254,0.183,0.219,0.437c0.712,0.057,0.63-0.679,1.091-0.873C128.689,85.126,128.605,84.992,128.642,84.738z
		 M129.514,86.048c0.235-0.585,0.505-1.771-0.654-1.528C128.937,85.171,128.985,85.849,129.514,86.048z M143.481,87.793
		c-0.167-0.633-0.346-1.255-0.873-1.527c-0.064,0.77-0.591-0.77-0.655,0C142.63,86.608,143.016,87.241,143.481,87.793z
		 M140.426,87.793c0.699,0.19,0.683-0.336,0.873-0.655c-0.279-0.012-0.303-0.279-0.654-0.218
		C140.575,87.216,140.333,87.337,140.426,87.793z M91.978,89.758c0.399,0.474-0.041,1.787,0.437,2.182
		c0.508-1.171-0.054,0.432,0.873,0.218c-0.22-1.268-0.22-2.524-0.655-3.055C92.783,89.69,92.181,89.525,91.978,89.758z
		 M135.406,89.758c-0.132-0.126-1.035-0.511-1.091,0C134.644,90.01,135.234,90.523,135.406,89.758z M129.95,93.468
		c0.556-0.027,0.847-0.318,0.873-0.873c-0.218,0-0.437,0-0.654,0C130.186,92.975,130.12,93.273,129.95,93.468z M91.76,93.686
		c0.488,0.581,1.093-0.309,1.527,0.218c-0.037-0.327,0.078-0.806-0.218-0.873C92.944,93.561,91.657,92.929,91.76,93.686z
		 M133.006,94.341c-0.133-0.013-0.259-0.033-0.218-0.218c0.169-0.049,0.43-0.006,0.437-0.218c-1.386,0.154-2.31-0.574-2.619,0.655
		C131.702,94.985,132.392,93.994,133.006,94.341z M92.414,98.269c0.001-0.874-0.114-1.631-1.091-1.528
		C91.511,97.426,91.249,98.562,92.414,98.269z M126.896,100.233c-0.026-0.555-0.317-0.846-0.873-0.873
		C126.098,99.867,126.164,100.383,126.896,100.233z M124.713,100.451c0.062-0.498-0.053-0.82-0.437-0.873
		c0.13,0.452-0.27,1.434,0.219,1.527c-0.063-0.384,1.027-0.675,0.437-0.873C124.919,100.366,124.898,100.491,124.713,100.451z
		 M141.517,104.38c1.061-0.293,0.607-2.542,0-3.056c-0.046,0.264-0.242,0.134-0.437,0
		C141.104,102.393,142.17,103.335,141.517,104.38z M130.387,111.581c-0.3-1.373-0.328-3.018-0.654-4.364
		c-2.289-0.152-4.179-2.395-5.893-1.746c1.776,2.629,2.593,5.269,0.655,8.511c-1.415,1.061-3.62,2.489-3.492,4.365
		c0.053-0.237,0.359-0.524,0.437-0.219c-0.191,0.491-0.131,1.808-0.873,1.092c0.301,0.689-0.54,1.316,0,1.527
		c-0.012-0.375,0.168-0.56,0.437-0.654c-0.016,0.743,0.642,0.813,1.091,1.091c0.647-0.299,1.075-0.816,1.746-1.091
		c-0.067,0.25-0.427,1.44,0,0.872c0.001-0.849,1.521-2.267,0.219-1.309c0.691-1.082,0.533-0.654,1.309-1.528
		c-0.244,0.413-0.022,1.073-0.436,1.746c1.016-0.359,0.913-2.528,1.745-2.4C126.944,115.411,128.983,113.233,130.387,111.581z
		 M128.859,114.637c0.775,0.339,0.132-0.741,0.654-0.655c0.301,0.01,0.479-0.103,0.655-0.218c-0.119-0.317,0.255-1.128-0.219-1.091
		c0.159,0.956-0.434-0.177-0.437,0.436C130.212,113.681,128.68,113.86,128.859,114.637z M142.608,108.962
		c0.178-0.855,0.438-2.215-0.437-2.837C142.554,107.053,141.654,108.354,142.608,108.962z M160.939,110.271
		c-0.097-0.558-0.306-1.003-0.654-1.31C159.893,109.381,160.224,110.306,160.939,110.271z M128.423,115.946
		c-0.187-0.696,0.344-0.676,0.437-1.092c-0.76-0.105-0.763,0.547-1.091,0.873c0-0.121-0.177-0.248-0.219,0
		C127.845,115.796,127.967,116.038,128.423,115.946z M117.293,123.147c0.764-0.261,1.94-1.251,1.527-1.964
		C118.288,121.814,117.615,122.306,117.293,123.147z M120.566,123.147c-0.547-0.037-0.529,0.489-0.873,0.655
		c0.526-0.09,0.475,0.398,1.092,0.218c0.304-0.278,0.095-1.069,0.654-1.091c0,0.291,0,0.582,0,0.873
		c0.794,0.139,0.857-0.452,0.873-1.092c-0.559-0.08-1.371-0.378-0.873-0.873c-1.155-0.127-0.139,0.898-0.654,1.092
		c-0.457-0.136-0.82-1.12-1.092-0.219C120.1,122.741,120.423,122.854,120.566,123.147z M171.852,124.021
		c-0.737-0.135-0.284-1.462-0.873-1.746C170.645,122.597,171.126,124.79,171.852,124.021z M122.53,126.203
		c1.431,0.941,2.061-1.347,1.528-2.4c-1.833,0.456-1.531,0.544-2.401,1.964c0.312,0.052,0.368,0.359,0.655,0.437
		c0.021-0.302,0.852-0.852,0.873-0.437C123.182,126.127,122.58,125.889,122.53,126.203z M116.856,126.64
		c0.267,0.024,0.517,0.065,0.437,0.437c0.519-0.137,1.016-0.294,1.091-0.873C117.767,126.24,116.887,126.016,116.856,126.64z
		 M117.075,128.386c0.708-0.127,1.015,0.148,1.527,0.218c0.169-0.704,0.456-1.29,0.873-1.746c0.839-0.038,0.846,0.754,1.527,0.873
		c0.38-0.493,1.604-0.143,1.746-0.873c-1.805,0.277-2.585-0.47-3.929-0.654C118.951,127.643,117.868,127.869,117.075,128.386z"/>
	<path display="inline" fill-rule="evenodd" clip-rule="evenodd" fill="#FFFFFF" d="M132.133,80.374
		c0.353-0.682,0.691,0.448,1.092,0.437c0.236-0.054,0.147-0.434,0.436-0.437c-0.417-0.383-0.783-0.817-0.872-1.527
		c1.118,0.409,1.189,1.865,1.964,2.619c0.293-0.144,0.406-0.466,0.437-0.873c0.282,0.809,0.688,1.494,0.873,2.401
		C133.484,82.937,134.02,80.821,132.133,80.374z"/>
	<path display="inline" fill-rule="evenodd" clip-rule="evenodd" fill="#FFFFFF" d="M134.533,78.846
		c0.332,0.349,1.998,1.357,1.092,1.527C135.562,79.563,134.47,79.782,134.533,78.846z"/>
	<path display="inline" fill-rule="evenodd" clip-rule="evenodd" fill="#FFFFFF" d="M97.215,83.647
		c-0.253-0.035-0.388,0.048-0.437,0.218c-0.543-0.033-0.063-0.739,0-0.873c0.194,0.134,0.391,0.264,0.437,0
		c0.274,0.054,0.22,0.434,0,0.436c-0.04,0.186,0.085,0.206,0.218,0.218C97.392,83.895,97.215,83.769,97.215,83.647z"/>
	<path display="inline" fill-rule="evenodd" clip-rule="evenodd" fill="#FFFFFF" d="M94.378,84.957
		c-0.353-0.062-0.376,0.206-0.655,0.218c-0.793-0.007-0.958-0.642-0.873-1.528C93.621,82.789,95.203,83.655,94.378,84.957z
		 M93.287,83.647c-0.41,0.417,0.129,0.395,0,1.091c0.506,0.07,0.838-0.035,1.091-0.218C94.41,83.834,93.819,83.771,93.287,83.647z"
		/>
	<path display="inline" fill-rule="evenodd" clip-rule="evenodd" fill="#FFFFFF" d="M141.953,86.266c0.064-0.77,0.591,0.77,0.655,0
		c0.527,0.272,0.706,0.895,0.873,1.527C143.016,87.241,142.63,86.608,141.953,86.266z"/>
	<path display="inline" fill-rule="evenodd" clip-rule="evenodd" fill="#FFFFFF" d="M130.605,94.559
		c0.31-1.229,1.233-0.501,2.619-0.655c-0.007,0.212-0.268,0.169-0.437,0.218c-0.041,0.186,0.085,0.206,0.218,0.218
		C132.392,93.994,131.702,94.985,130.605,94.559z"/>
	<path display="inline" fill-rule="evenodd" clip-rule="evenodd" fill="#FFFFFF" d="M124.932,100.233
		c0.591,0.197-0.499,0.488-0.437,0.873c-0.488-0.094-0.089-1.075-0.219-1.527c0.384,0.053,0.498,0.375,0.437,0.873
		C124.898,100.491,124.919,100.366,124.932,100.233z"/>
	<path display="inline" fill-rule="evenodd" clip-rule="evenodd" fill="#FFFFFF" d="M126.677,117.474
		c-0.832-0.128-0.729,2.041-1.745,2.4c0.413-0.673,0.191-1.333,0.436-1.746c-0.775,0.874-0.617,0.446-1.309,1.528
		c1.302-0.958-0.218,0.46-0.219,1.309c-0.427,0.568-0.067-0.622,0-0.872c-0.671,0.274-1.099,0.792-1.746,1.091
		c-0.449-0.278-1.106-0.348-1.091-1.091c-0.269,0.095-0.448,0.279-0.437,0.654c-0.54-0.211,0.301-0.838,0-1.527
		c0.742,0.716,0.682-0.601,0.873-1.092c-0.077-0.306-0.384-0.019-0.437,0.219c-0.128-1.876,2.077-3.305,3.492-4.365
		c1.938-3.242,1.121-5.882-0.655-8.511c1.714-0.648,3.604,1.594,5.893,1.746c0.326,1.347,0.354,2.991,0.654,4.364
		C128.983,113.233,126.944,115.411,126.677,117.474z"/>
	<path display="inline" fill-rule="evenodd" clip-rule="evenodd" fill="#FFFFFF" d="M129.514,113.108
		c0.003-0.612,0.596,0.521,0.437-0.436c0.474-0.037,0.1,0.773,0.219,1.091c-0.176,0.115-0.354,0.228-0.655,0.218
		c-0.522-0.086,0.121,0.994-0.654,0.655C128.68,113.86,130.212,113.681,129.514,113.108z"/>
	<path display="inline" fill-rule="evenodd" clip-rule="evenodd" fill="#FFFFFF" d="M127.55,115.728
		c0.042-0.248,0.219-0.121,0.219,0c0.328-0.326,0.331-0.979,1.091-0.873c-0.093,0.416-0.623,0.396-0.437,1.092
		C127.967,116.038,127.845,115.796,127.55,115.728z"/>
	<path display="inline" fill-rule="evenodd" clip-rule="evenodd" d="M109,120.965c0.248,0.042,0.121,0.22,0,0.219
		c0.033,0.403,0.739,0.134,0.873,0.437c-0.407,0.388,0.177,0.555,0,1.31c-0.343-0.094-0.187-0.687-0.873-0.437
		c-0.547,0.802-1.575,3.316-1.091,3.71c-0.19,0.319-0.327,0.691-0.873,0.654c-0.204-2.459,0.275-4.234,0.873-5.893
		C108.116,121.456,108.613,121.372,109,120.965z"/>
	<path display="inline" fill-rule="evenodd" clip-rule="evenodd" fill="#FFFFFF" d="M119.693,122.711
		c0.271-0.901,0.635,0.083,1.092,0.219c0.516-0.193-0.501-1.219,0.654-1.092c-0.498,0.495,0.314,0.793,0.873,0.873
		c-0.016,0.64-0.079,1.23-0.873,1.092c0-0.291,0-0.582,0-0.873c-0.56,0.021-0.351,0.813-0.654,1.091
		c-0.617,0.181-0.565-0.308-1.092-0.218c0.344-0.166,0.326-0.692,0.873-0.655C120.423,122.854,120.1,122.741,119.693,122.711z"/>
	<path display="inline" fill-rule="evenodd" clip-rule="evenodd" fill="#FFFFFF" d="M92.632,89.103
		c0.435,0.531,0.435,1.787,0.655,3.055c-0.927,0.213-0.365-1.389-0.873-0.218c-0.478-0.395-0.037-1.708-0.437-2.182
		C92.181,89.525,92.783,89.69,92.632,89.103z"/>
	<path display="inline" fill-rule="evenodd" clip-rule="evenodd" fill="#FFFFFF" d="M123.186,125.767
		c-0.021-0.415-0.853,0.135-0.873,0.437c-0.287-0.077-0.344-0.385-0.655-0.437c0.87-1.42,0.568-1.508,2.401-1.964
		c0.532,1.054-0.098,3.342-1.528,2.4C122.58,125.889,123.182,126.127,123.186,125.767z"/>
</g>
<g>
	<path fill-rule="evenodd" clip-rule="evenodd" d="M129.294,59.48c0.572,0.098,0.517-0.434,1.188-0.237
		c-0.038,0.276,0.053,0.422,0.237,0.475c0.173,0.648-0.472,0.478-0.475,0.95C129.562,60.638,129.116,60.371,129.294,59.48z"/>
	<path fill-rule="evenodd" clip-rule="evenodd" fill="#FFFFFF" d="M129.294,62.805c-0.217,0.416-0.441,0.825-1.187,0.712
		c-0.126-0.191-0.248-0.386-0.237-0.712C128.173,62.48,128.991,62.48,129.294,62.805z"/>
	<path fill-rule="evenodd" clip-rule="evenodd" fill="#FFFFFF" d="M131.432,66.367c-0.739,0.496-1.744-0.673-2.375-0.475
		C129.74,64.853,130.745,66.022,131.432,66.367z"/>
	<path fill-rule="evenodd" clip-rule="evenodd" fill="#FFFFFF" d="M147.815,66.604c-0.551,0.076-0.911-0.039-1.188-0.238
		C146.862,65.827,147.817,65.778,147.815,66.604z"/>
	<path fill-rule="evenodd" clip-rule="evenodd" fill="#FFFFFF" d="M127.157,73.016c-0.769,0.293-0.182-0.769-0.95-0.475
		C126.324,71.738,127.448,72.08,127.157,73.016z"/>
	<path fill-rule="evenodd" clip-rule="evenodd" fill="#FFFFFF" d="M137.13,79.664c0.212,0.185,0.536,0.255,0.95,0.237
		c-0.309,0.316-0.313,0.884,0.237,0.95C137.727,81.579,137.001,80.442,137.13,79.664z"/>
	<path fill-rule="evenodd" clip-rule="evenodd" fill="#FFFFFF" d="M141.404,82.988c0.384-0.067,0.409,0.225,0.713,0.238
		c-0.208,0.347-0.189,0.919-0.95,0.712C141.066,83.442,141.33,83.31,141.404,82.988z"/>
	<path fill-rule="evenodd" clip-rule="evenodd" fill="#FFFFFF" d="M125.495,96.523c0.604,0.029,0.921,0.346,0.95,0.95
		C125.648,97.636,125.577,97.075,125.495,96.523z"/>
	<path fill-rule="evenodd" clip-rule="evenodd" fill="#FFFFFF" d="M141.879,98.66c0.212,0.146,0.425,0.287,0.476,0
		c0.66,0.56,1.153,3.006,0,3.324C143.064,100.848,141.904,99.823,141.879,98.66z"/>
	<path fill-rule="evenodd" clip-rule="evenodd" fill="#FFFFFF" d="M143.066,103.884c0.951,0.677,0.668,2.156,0.475,3.087
		C142.504,106.31,143.482,104.894,143.066,103.884z"/>
	<path fill-rule="evenodd" clip-rule="evenodd" fill="#FFFFFF" d="M162.775,106.971c0.379,0.333,0.606,0.818,0.712,1.425
		C162.708,108.433,162.348,107.426,162.775,106.971z"/>
	<path fill-rule="evenodd" clip-rule="evenodd" fill="#FFFFFF" d="M117.659,120.269c0.449,0.775-0.831,1.853-1.662,2.137
		C116.348,121.489,117.079,120.955,117.659,120.269z"/>
	<path fill-rule="evenodd" clip-rule="evenodd" fill="#FFFFFF" d="M174.41,121.456c0.641,0.309,0.147,1.752,0.95,1.899
		C174.57,124.192,174.047,121.806,174.41,121.456z"/>
	<path fill-rule="evenodd" clip-rule="evenodd" fill="#FFFFFF" d="M117.185,125.729c-0.082,0.631-0.623,0.802-1.188,0.95
		c0.087-0.404-0.186-0.448-0.475-0.475C115.556,125.525,116.513,125.771,117.185,125.729z"/>
	<path fill-rule="evenodd" clip-rule="evenodd" fill="#FFFFFF" d="M117.659,125.729c1.461,0.201,2.311,1.015,4.274,0.713
		c-0.155,0.794-1.486,0.413-1.899,0.949c-0.741-0.129-0.75-0.991-1.662-0.949c-0.454,0.496-0.767,1.134-0.95,1.899
		c-0.558-0.076-0.892-0.375-1.662-0.237C116.622,127.542,117.802,127.297,117.659,125.729z"/>
	<path fill-rule="evenodd" clip-rule="evenodd" d="M125.495,130.716c0.409-0.899,1.575-0.076,1.899,0
		C129.448,131.199,127.302,130.815,125.495,130.716z"/>
	<path fill-rule="evenodd" clip-rule="evenodd" d="M135.706,62.805c0.197-0.346-0.101-2.418,0.712-2.85
		c0.524,0.03,0.101,1.007,0.237,1.425c2.359-0.139,3.168,4.111,4.749,1.187c0.683,0.03,1.128,0.297,0.95,1.188
		c1.355-1.61,2.246,0.977,3.799,0c-0.076,0.854,1.257,1.788,1.662,0.712c0.063,0.705,0.801,1.374,1.188,2.375
		c-0.55,0.961-1.263,0.736-0.237,1.662c-4.618-1.303-10.371-1.751-14.247,0.475c1.06,2.48,4.753,3.851,7.836,4.749
		c-0.129,0.841,0.841,0.583,0.712,1.424c8.708,2.533,11.395,13.142,19.233,17.334c3.645,3.382,8.339,5.272,12.11,8.549
		c1.808,1.57,3.505,3.264,5.462,4.749c1.831,1.39,4.524,2.596,4.986,5.224c-4.082-3.121-9.185-5.221-14.01-7.599
		c2.649,2.97,5.389,5.851,8.073,8.786c-3.386,0.139-5.223-3.325-8.786-3.8c-0.945,0.751-0.491,1.871,0,2.612
		c2.619,3.945,8.895,8.095,12.11,11.16c1.163,2.381,3.897,5.081,7.361,5.937c1.942,2.183,4.915,4.569,5.698,7.123
		c-3.163-0.965-4.591-3.89-9.022-2.374c2.205,2.781,5.812,6.218,7.598,10.21c-4.378-3.774-8.986-7.318-14.009-10.447
		c-4.435-0.236-6.907-2.434-9.499-4.512c0.634,0,1.267,0,1.9,0c-3.037-2.266-7.071-2.219-9.735-4.986
		c-5.066,0.158-5.532-4.284-9.023-5.699c0.007-0.23,0.29-0.185,0.475-0.237c-1.495-0.4-3.344-3.557-3.324-3.562
		c-0.643,0.168-1.883-0.268-2.374-0.476c-2.866-1.207-7.441-3.934-10.448-4.986c3.45-0.204,5.858,2.688,9.261,3.324
		c-3.287-1.541-6.311-3.346-9.974-4.512c-0.106-0.684-0.84-0.742-0.712-1.662c-1.384,5.424-6.519,7.096-8.548,11.873
		c-0.395-0.397-1.395-0.189-2.138-0.237c0.163,0.834,0.823,1.169,1.662,0.712c-0.509,1.866-3.087,1.662-2.85,4.274
		c0.356,0.069,0.425,0.317,0.95,0.712c0.129,2.427,2.743,3.56,3.324,4.749c0.346-0.367,1.216-0.209,1.899-0.237
		c0.205,0.982,0.638,1.737,0.713,2.85c-1.137-1.52,0.838,3.683-0.95,3.562c0.168-2.146-0.624-2.604-0.949-3.799
		c-0.476,0-0.95,0-1.425,0c-0.04,0.515,0.842,0.107,1.187,0.237c-2.396,0.494-5.922-0.662-9.498-0.713
		c0.027-0.606,0.796-0.471,1.425-0.475c-0.412-0.625-1.648-0.085-1.662,0.475c0.987,1.389,4.814-0.064,5.699,1.425
		c-1.788-0.445-3.549-0.451-5.937-0.712c-2.149,1.244-1.093,4.389-0.949,8.786c-0.564-1.194-1.497-5.496-0.713-5.699
		c-0.18-1.063-1.225-1.794-0.475-3.087c-1.11-0.296-3.098-0.777-4.274-0.237c0.36,1.27,0.915,3.453,0.475,4.749
		c-0.865-1.034-0.443-3.356-1.187-4.512c0.74-1.555,2.249-2.341,3.087-3.799c-1.032,0.251-2.805-0.312-3.087,1.187
		c-1.858-2.052,3.851-1.127,3.562-2.374c1.372-0.106,2.433,0.1,3.562,0.237c0.47-0.146-0.382-1.519,0.475-1.425
		c-2.185-1.191-5.012-0.315-6.886-1.662c0.102-0.452,0.512-0.597,0.475-1.188c-0.424-0.066-0.487,0.225-0.237,0.237
		c-0.577,0.428-2.57-1.813-3.562-0.237c0.447,0.771,1.084-0.026,1.899,0.476c-0.156,0.711-0.508-0.228-0.949,0
		c1.026,0.794,1.559-0.057,2.137,1.424c-0.746-0.124-1.325-0.416-1.899-0.712c-1.796,0.342-1.05,3.225-2.375,4.037
		c-1.002-0.673,0.061-1.948-0.237-3.325c-0.531,0.103-0.096,1.171-0.237,1.662c-0.438-0.592-0.344-1.714-1.188-1.899
		c-1.548,0.524-0.764,2.806-1.188,3.563c-2.584-1.356,0.601-4.576,0.476-7.124c3.113-1.11,8.329,0.567,11.397-0.95
		c-0.403,0.898-0.212,1.153-0.475,1.9c0.554,0.384,1.275-1.09,1.425-1.9c0.312,0.084,0.373,0.419,0.712,0.476
		c-0.081-0.477,0.049-0.743,0.475-0.713c-0.39-0.48-0.512-1.229-1.187-1.425c-0.878,0.495,0.721,1.002,0,1.425
		c-2.064-1.543,0.778-3.233,0.712-5.224c-0.054-1.593-2.075-2.283-0.712-4.037c-0.643-2.119-1.319-5.174-2.85-7.123
		c-0.875-1.114-2.345-1.267-3.324-2.375c-1.196-1.353-1.87-4.049-3.8-5.937c-1.858-1.818-4.971-6.207-5.698-9.735
		c-1.191-5.77-0.658-13.258,2.374-17.571c0.113-1.618-0.115-2.892-0.237-4.274c3.18-3.851,8.878-9.978,15.197-10.685
		c3.585-0.401,6.744,0.639,9.498,1.424c2.929,0.835,5.572,2.799,7.598,4.512c-0.022,2.002,1.562,2.396,3.087,2.85
		c0.101,0.496-0.162,0.628-0.237,0.95c1.156-0.707,2.594,0.165,3.324,1.187c-0.584,0.049-1.903,0.556-1.899-0.475
		c-1.2,0.147-0.61,1.747-1.899,1.187c0.174-0.222,0.432-0.359,0.712-0.475c-0.807-0.423-0.688-1.242-2.137-1.425
		c0.174-0.222,0.432-0.36,0.712-0.475c-1.823-0.605-2.184-1.326-3.562-0.237C136.765,59.933,134.226,62.569,135.706,62.805z
		 M119.559,122.405c-0.595-0.041-0.576,0.532-0.949,0.713c0.572-0.098,0.516,0.434,1.187,0.237c0.331-0.303,0.104-1.163,0.713-1.188
		c0,0.316,0,0.633,0,0.95c0.863,0.151,0.933-0.492,0.949-1.188c-0.607-0.087-1.491-0.412-0.949-0.95
		c-1.257-0.139-0.151,0.977-0.713,1.188c-0.496-0.147-0.892-1.218-1.187-0.237C119.052,121.963,119.402,122.087,119.559,122.405z
		 M130.719,60.905c0.571-0.655,0.432-1.396,0-2.137c-1.546,0.015-2.681,0.232-2.137,1.424c0.037-0.279-0.041-0.674,0.237-0.712
		C128.83,60.579,129.494,61.022,130.719,60.905z M127.87,62.805c-0.011,0.327,0.111,0.521,0.237,0.712
		c0.745,0.112,0.97-0.296,1.187-0.712C128.991,62.48,128.173,62.48,127.87,62.805z M138.555,62.805
		c-0.794,0.139-1.161-0.549-1.899,0.237C137.086,63.023,138.215,63.65,138.555,62.805z M129.057,65.892
		c0.631-0.198,1.636,0.971,2.375,0.475C130.745,66.022,129.74,64.853,129.057,65.892z M146.628,66.367
		c0.276,0.199,0.637,0.313,1.188,0.238C147.817,65.778,146.862,65.827,146.628,66.367z M126.207,72.541
		c0.769-0.293,0.182,0.769,0.95,0.475C127.448,72.08,126.324,71.738,126.207,72.541z M138.317,80.852
		c-0.55-0.066-0.546-0.634-0.237-0.95c-0.414,0.018-0.738-0.053-0.95-0.237C137.001,80.442,137.727,81.579,138.317,80.852z
		 M144.491,83.938c-0.182-0.688-0.375-1.366-0.95-1.662c-0.069,0.838-0.642-0.838-0.712,0
		C143.565,82.648,143.984,83.337,144.491,83.938z M141.167,83.938c0.761,0.208,0.742-0.365,0.95-0.712
		c-0.304-0.013-0.329-0.305-0.713-0.238C141.33,83.31,141.066,83.442,141.167,83.938z M126.445,97.473
		c-0.029-0.604-0.346-0.921-0.95-0.95C125.577,97.075,125.648,97.636,126.445,97.473z M124.07,97.71
		c0.066-0.542-0.057-0.893-0.475-0.95c0.141,0.492-0.294,1.56,0.237,1.662c-0.068-0.419,1.118-0.735,0.475-0.95
		C124.295,97.618,124.272,97.754,124.07,97.71z M142.354,101.984c1.153-0.318,0.66-2.765,0-3.324c-0.051,0.287-0.264,0.146-0.476,0
		C141.904,99.823,143.064,100.848,142.354,101.984z M125.258,106.971c-0.059,3.899-1.881,6.034-4.274,7.599
		c0.206-0.87-1.395,1.907-0.949,2.612c0.057-0.258,0.391-0.57,0.475-0.237c-0.157,0.634-0.1,1.483-0.475,1.899
		c0.013-0.408-0.184-0.608-0.476-0.713c0.327,0.751-0.588,1.434,0,1.662c-0.013-0.408,0.183-0.608,0.476-0.712
		c-0.036,1.401,1.051,2.337,2.374,1.662c-0.075,0.558-0.734,0.531-0.95,0.95c0.982-0.016,1.243-0.75,0.95-1.425
		c1.185-0.087,1.595-2.792,2.375-3.324c-0.267,0.449-0.024,1.167-0.476,1.899c1.105-0.392,0.994-2.751,1.899-2.612
		c-0.15-1.578,1.6-3.306,2.85-4.273c-0.352-0.045-0.218-0.574-0.237-0.95c0.693-0.336,1.203-0.855,1.425-1.662
		c-1.746,0.787-0.472-3.05-1.662-3.562c-0.848-0.107-2.824-1.13-4.274-1.425c-0.435-0.214-0.532-1.979-1.187-1.188
		C123.767,104.505,124.189,106.061,125.258,106.971z M128.582,113.145c0.844,0.369,0.144-0.807,0.712-0.712
		c0.327,0.01,0.521-0.112,0.713-0.237c-0.13-0.346,0.277-1.228-0.237-1.188c0.173,1.04-0.472-0.191-0.476,0.475
		C130.054,112.104,128.387,112.3,128.582,113.145z M143.541,106.971c0.193-0.931,0.477-2.41-0.475-3.087
		C143.482,104.894,142.504,106.31,143.541,106.971z M129.77,105.784c-0.277-0.04-0.258-0.376-0.237-0.713
		c-1.09,0.208-1.855-1.139-2.612-0.475C127.985,104.725,129.266,105.883,129.77,105.784z M163.487,108.396
		c-0.105-0.606-0.333-1.092-0.712-1.425C162.348,107.426,162.708,108.433,163.487,108.396z M150.19,113.145
		c-0.643-0.395-1.726-1.589-2.375-1.187C148.605,112.205,149.698,113.389,150.19,113.145z M118.847,116.231
		c1.237-0.7,1.731-2.253,1.188-3.562c-0.444,0.98-0.684,2.166-1.188,3.087c0.001-0.132-0.192-0.27-0.237,0
		C118.794,115.81,118.885,115.956,118.847,116.231z M128.107,114.569c-0.204-0.758,0.373-0.734,0.475-1.188
		c-0.827-0.114-0.829,0.596-1.188,0.95c0.001-0.132-0.192-0.27-0.237,0C127.479,114.407,127.61,114.67,128.107,114.569z
		 M107.211,119.081c-0.699-0.051-1.448,1.063-0.949,1.425c0.064-0.217,1.052-0.631,0.949-0.237c0.449-0.144,0.7,1.777,0.95,1.899
		c-0.112-1.077-0.001-1.759,0.95-1.188c0.194-0.907-1.146-0.279-0.95-1.188c0.345-0.129,1.228,0.278,1.188-0.237
		C108.569,118.604,107.388,120.793,107.211,119.081z M115.997,122.405c0.831-0.284,2.111-1.361,1.662-2.137
		C117.079,120.955,116.348,121.489,115.997,122.405z M175.36,123.355c-0.803-0.147-0.31-1.591-0.95-1.899
		C174.047,121.806,174.57,124.192,175.36,123.355z M121.696,125.729c1.556,1.025,2.241-1.465,1.662-2.611
		c-1.994,0.496-1.666,0.592-2.612,2.137c0.339,0.057,0.4,0.391,0.712,0.475c0.023-0.327,0.928-0.927,0.95-0.475
		C122.404,125.646,121.75,125.388,121.696,125.729z M115.522,126.205c0.289,0.026,0.562,0.07,0.475,0.475
		c0.564-0.148,1.105-0.319,1.188-0.95C116.513,125.771,115.556,125.525,115.522,126.205z M115.76,128.104
		c0.771-0.138,1.104,0.161,1.662,0.237c0.184-0.766,0.496-1.403,0.95-1.899c0.912-0.042,0.921,0.82,1.662,0.949
		c0.413-0.536,1.744-0.155,1.899-0.949c-1.964,0.302-2.813-0.512-4.274-0.713C117.802,127.297,116.622,127.542,115.76,128.104z
		 M113.623,128.579c0.291,0.699,4.006,1.099,3.562,0.237c-0.639,0.468-2.339-0.026-3.087-0.237c0.132,0.001,0.27-0.192,0-0.237
		C114.045,128.526,113.898,128.618,113.623,128.579z"/>
	<path fill-rule="evenodd" clip-rule="evenodd" fill="#FFFFFF" d="M118.609,121.931c0.295-0.98,0.69,0.09,1.187,0.237
		c0.562-0.211-0.544-1.326,0.713-1.188c-0.542,0.538,0.342,0.863,0.949,0.95c-0.017,0.695-0.086,1.339-0.949,1.188
		c0-0.317,0-0.634,0-0.95c-0.609,0.024-0.382,0.885-0.713,1.188c-0.671,0.196-0.614-0.335-1.187-0.237
		c0.373-0.181,0.354-0.754,0.949-0.713C119.402,122.087,119.052,121.963,118.609,121.931z"/>
	<path fill-rule="evenodd" clip-rule="evenodd" fill="#FFFFFF" d="M128.819,59.48c-0.278,0.039-0.2,0.433-0.237,0.712
		c-0.544-1.192,0.591-1.41,2.137-1.424c0.432,0.741,0.571,1.482,0,2.137C129.494,61.022,128.83,60.579,128.819,59.48z
		 M130.244,60.668c0.003-0.472,0.647-0.302,0.475-0.95c-0.185-0.053-0.275-0.199-0.237-0.475c-0.671-0.196-0.615,0.335-1.188,0.237
		C129.116,60.371,129.562,60.638,130.244,60.668z"/>
	<path fill-rule="evenodd" clip-rule="evenodd" fill="#FFFFFF" d="M136.655,63.042c0.738-0.787,1.105-0.098,1.899-0.237
		C138.215,63.65,137.086,63.023,136.655,63.042z"/>
	<path fill-rule="evenodd" clip-rule="evenodd" fill="#FFFFFF" d="M142.829,82.276c0.07-0.838,0.643,0.838,0.712,0
		c0.575,0.296,0.769,0.974,0.95,1.662C143.984,83.337,143.565,82.648,142.829,82.276z"/>
	<path fill-rule="evenodd" clip-rule="evenodd" fill="#FFFFFF" d="M124.308,97.473c0.644,0.214-0.543,0.531-0.475,0.95
		c-0.531-0.103-0.097-1.17-0.237-1.662c0.418,0.057,0.541,0.408,0.475,0.95C124.272,97.754,124.295,97.618,124.308,97.473z"/>
	<path fill-rule="evenodd" clip-rule="evenodd" fill="#FFFFFF" d="M123.121,103.172c0.654-0.792,0.752,0.974,1.187,1.188
		c1.45,0.295,3.427,1.317,4.274,1.425c1.19,0.512-0.084,4.349,1.662,3.562c-0.222,0.807-0.731,1.326-1.425,1.662
		c0.02,0.376-0.114,0.905,0.237,0.95c-1.25,0.968-3,2.695-2.85,4.273c-0.905-0.139-0.794,2.221-1.899,2.612
		c0.451-0.732,0.209-1.45,0.476-1.899c-0.78,0.532-1.19,3.237-2.375,3.324c0.293,0.675,0.032,1.409-0.95,1.425
		c0.216-0.419,0.875-0.393,0.95-0.95c-1.323,0.675-2.41-0.261-2.374-1.662c-0.293,0.104-0.488,0.304-0.476,0.712
		c-0.588-0.229,0.327-0.911,0-1.662c0.292,0.104,0.488,0.305,0.476,0.713c0.375-0.416,0.317-1.266,0.475-1.899
		c-0.084-0.333-0.418-0.021-0.475,0.237c-0.445-0.705,1.155-3.482,0.949-2.612c2.394-1.564,4.216-3.699,4.274-7.599
		C124.189,106.061,123.767,104.505,123.121,103.172z"/>
	<path fill-rule="evenodd" clip-rule="evenodd" fill="#FFFFFF" d="M129.294,111.482c0.004-0.666,0.648,0.565,0.476-0.475
		c0.515-0.04,0.107,0.842,0.237,1.188c-0.191,0.125-0.386,0.247-0.713,0.237c-0.568-0.095,0.132,1.081-0.712,0.712
		C128.387,112.3,130.054,112.104,129.294,111.482z"/>
	<path fill-rule="evenodd" clip-rule="evenodd" fill="#FFFFFF" d="M126.92,104.597c0.757-0.664,1.522,0.683,2.612,0.475
		c-0.021,0.337-0.04,0.673,0.237,0.713C129.266,105.883,127.985,104.725,126.92,104.597z"/>
	<path fill-rule="evenodd" clip-rule="evenodd" fill="#FFFFFF" d="M147.815,111.958c0.649-0.402,1.732,0.792,2.375,1.187
		C149.698,113.389,148.605,112.205,147.815,111.958z"/>
	<path fill-rule="evenodd" clip-rule="evenodd" fill="#FFFFFF" d="M118.609,115.757c0.045-0.27,0.238-0.132,0.237,0
		c0.504-0.921,0.743-2.106,1.188-3.087c0.544,1.309,0.05,2.861-1.188,3.562C118.885,115.956,118.794,115.81,118.609,115.757z"/>
	<path fill-rule="evenodd" clip-rule="evenodd" fill="#FFFFFF" d="M127.157,114.332c0.045-0.27,0.238-0.132,0.237,0
		c0.358-0.354,0.36-1.064,1.188-0.95c-0.102,0.453-0.679,0.43-0.475,1.188C127.61,114.67,127.479,114.407,127.157,114.332z"/>
	<path fill-rule="evenodd" clip-rule="evenodd" fill="#FFFFFF" d="M109.349,119.556c0.04,0.516-0.843,0.108-1.188,0.237
		c-0.195,0.908,1.145,0.28,0.95,1.188c-0.951-0.571-1.063,0.11-0.95,1.188c-0.25-0.122-0.501-2.043-0.95-1.899
		c0.103-0.394-0.885,0.021-0.949,0.237c-0.499-0.361,0.25-1.476,0.949-1.425C107.388,120.793,108.569,118.604,109.349,119.556z"/>
	<path fill-rule="evenodd" clip-rule="evenodd" d="M110.773,126.917c0.946-0.639,0.132,1.015-0.237,1.188
		c0.694,0.062,0.729-0.537,1.424-0.476c0.014,0.778,0.676,0.908,0.476,1.9c-0.301-0.57-1.872,0.131-2.138-0.476
		c-0.823,1.155-0.597,3.361-1.899,4.037c0.711-1.584,0.784-3.807,1.899-4.986c-1.665,1.73-0.301-1.201,0.713-0.95
		C111.055,126.952,110.918,126.931,110.773,126.917z"/>
	<path fill-rule="evenodd" clip-rule="evenodd" fill="#FFFFFF" d="M114.098,128.342c0.27,0.045,0.132,0.238,0,0.237
		c0.748,0.211,2.448,0.705,3.087,0.237c0.444,0.861-3.271,0.462-3.562-0.237C113.898,128.618,114.045,128.526,114.098,128.342z"/>
	<path fill-rule="evenodd" clip-rule="evenodd" fill="#FFFFFF" d="M122.408,125.255c-0.022-0.452-0.927,0.147-0.95,0.475
		c-0.312-0.084-0.373-0.418-0.712-0.475c0.946-1.545,0.618-1.641,2.612-2.137c0.579,1.146-0.106,3.637-1.662,2.611
		C121.75,125.388,122.404,125.646,122.408,125.255z"/>
</g>
</svg>
